Coordinates
nRows=7
nColumns=38

# SIMM Motion File Header:
name Coordinates
datacolumns 38
datarows 7
otherdata 1
range 0.10000000000000001000 0.10600000000000001000

Units are S.I. units (second, meters, Newtons, ...)
Angles are in degrees.

endheader
time	pelvis_tilt	pelvis_list	pelvis_rotation	pelvis_tx	pelvis_ty	pelvis_tz	hip_flexion_r	hip_adduction_r	hip_rotation_r	knee_angle_r	ankle_angle_r	subtalar_angle_r	mtp_angle_r	hip_flexion_l	hip_adduction_l	hip_rotation_l	knee_angle_l	ankle_angle_l	subtalar_angle_l	mtp_angle_l	lumbar_extension	lumbar_bending	lumbar_rotation	arm_flex_r	arm_add_r	arm_rot_r	elbow_flex_r	pro_sup_r	wrist_flex_r	wrist_dev_r	arm_flex_l	arm_add_l	arm_rot_l	elbow_flex_l	pro_sup_l	wrist_flex_l	wrist_dev_l
      0.10000000000000001000	     -5.91690332361699940000	      0.70591099071079000000	     -1.61856963285419140000	      0.99428382589305320000	      1.06166016428716330000	     -0.30935393884256623000	     36.14092977648595500000	      4.02804907043980090000	      0.22126557388971424000	    -15.10173695030370700000	      9.56406680604912300000	      0.00000000000000000000	      0.00000000000000000000	    -17.64734397768557600000	      4.59962807578720500000	     -6.83122463081799850000	    -47.63460634039582700000	     -7.40033722497299620000	      0.00000000000000000000	      0.00000000000000000000	     -5.67261600430426500000	      2.84581880642106810000	    -15.19231637714427800000	    -45.71686497363445800000	    -23.25210432286060700000	    -16.79332540600760000000	    113.50712625469772000000	    115.26120533219513000000	      0.00000000000000000000	      0.00000000000000000000	    -17.11444172317319400000	    -18.21370004515548000000	      8.28200072775793390000	    129.21054724545507000000	    103.46651956817142000000	      0.00000000000000000000	      0.00000000000000000000
      0.10100000000000001000	     -5.83793259285498940000	      0.68924604102114684000	     -1.66813283884382860000	      0.99422090466326585000	      1.06140956998627360000	     -0.30927786108931093000	     36.01624218498179900000	      4.06396681290044890000	      0.18244739599082185000	    -15.14888695931528100000	      9.54449122047525480000	      0.00000000000000000042	      0.00000000000000000254	    -17.54256377565480600000	      4.60347730937920650000	     -6.81156579433221850000	    -48.28486156408943200000	     -7.30588280550458170000	      0.00000000000000000030	      0.00000000000000000080	     -5.79428460527775080000	      2.88663506259117050000	    -15.08341598074671800000	    -45.49136117381962700000	    -23.30624289794001000000	    -16.77393106963214800000	    113.45917159035405000000	    115.42823110535137000000	     -0.00000000000000000012	      0.00000000000000000015	    -17.14093570761398800000	    -18.20720044846730800000	      8.33138973375887380000	    129.11205087301073000000	    103.44576819760950000000	      0.00000000000000000026	      0.00000000000000000028
      0.10200000000000001000	     -5.75768086107989150000	      0.67027676273375814000	     -1.71731724911551440000	      0.99415433740975601000	      1.06115296370850800000	     -0.30920209992573061000	     35.89120849370746700000	      4.10228615129985560000	      0.14824845944965942000	    -15.20693465144699500000	      9.52673010605727730000	     -0.00000000000000000015	      0.00000000000000000491	    -17.43610080347021800000	      4.60454433720632220000	     -6.79475449461122330000	    -48.93835905479652800000	     -7.21341722416189950000	     -0.00000000000000000000	      0.00000000000000000197	     -5.91815223749417200000	      2.92990911879451500000	    -14.97332973937129100000	    -45.26481898593679200000	    -23.36115280645007900000	    -16.75414588227066700000	    113.41015267819077000000	    115.59722368446434000000	     -0.00000000000000000011	     -0.00000000000000000006	    -17.16618429043847600000	    -18.20014688053428000000	      8.38077397482153330000	    129.01137963717443000000	    103.42373528667244000000	      0.00000000000000000088	      0.00000000000000000073
      0.10300000000000001000	     -5.67624614365366580000	      0.64896063674675608000	     -1.76624827122943270000	      0.99408402460029632000	      1.06089030123751080000	     -0.30912642824607683000	     35.76591997099328800000	      4.14313767182780080000	      0.11924582422076130000	    -15.27570042394548000000	      9.50547250979835920000	     -0.00000000000000000075	      0.00000000000000000789	    -17.32791438445204000000	      4.60277432508181490000	     -6.78095622947548730000	    -49.59494166271524300000	     -7.12289967698058570000	     -0.00000000000000000146	      0.00000000000000000334	     -6.04413059681537760000	      2.97567675362457650000	    -14.86191141432207100000	    -45.03729082681640300000	    -23.41686867866056700000	    -16.73400356899756500000	    113.36011735339541000000	    115.76787433664020000000	     -0.00000000000000000028	     -0.00000000000000000038	    -17.19018224633421000000	    -18.19251264509707500000	      8.43016119935371220000	    128.90855254827244000000	    103.40038867172385000000	      0.00000000000000000223	      0.00000000000000000233
      0.10400000000000001000	     -5.59362270108441350000	      0.62531543584772642000	     -1.81493767564528840000	      0.99401008084730069000	      1.06062156527009410000	     -0.30905076912429735000	     35.64023610530963300000	      4.18654653388126260000	      0.09563239585175419000	    -15.35478002999323600000	      9.48144101629455350000	     -0.00000000000000000129	      0.00000000000000001035	    -17.21810604092565100000	      4.59814265086579250000	     -6.77020889978635410000	    -50.25440578190954000000	     -7.03426590630328620000	     -0.00000000000000000334	      0.00000000000000000424	     -6.17222102480750840000	      3.02390365867230360000	    -14.74913842482173700000	    -44.80885677638187300000	    -23.47341175555265400000	    -16.71353314084952400000	    113.30915237880369000000	    115.93981092836194000000	     -0.00000000000000000066	     -0.00000000000000000044	    -17.21295274045300500000	    -18.18430334738909300000	      8.47954317585325510000	    128.80364431090723000000	    103.37567453301375000000	      0.00000000000000000398	      0.00000000000000000675
      0.10500000000000001000	     -5.50975053105737530000	      0.59936039558068899000	     -1.86348300989583190000	      0.99393258017548558000	      1.06034684828658810000	     -0.30897491319317577000	     35.51399549600312600000	      4.23258231216934530000	      0.07770884999172771000	    -15.44382765491903200000	      9.45417185551674600000	     -0.00000000000000000377	      0.00000000000000001327	    -17.10684935773112200000	      4.59065100260320950000	     -6.76262390126580290000	    -50.91650868855401800000	     -6.94747484398797520000	     -0.00000000000000000385	      0.00000000000000000547	     -6.30250000895826460000	      3.07454569885135510000	    -14.63490123264611100000	    -44.57957400180877300000	    -23.53080613513502700000	    -16.69276068397207900000	    113.25734638153820000000	    116.11265145771121000000	     -0.00000000000000000089	     -0.00000000000000000022	    -17.23449948739981600000	    -18.17552773408255400000	      8.52891302781687700000	    128.69672909033270000000	    103.34953636045478000000	      0.00000000000000000555	      0.00000000000000001230
      0.10600000000000001000	     -5.42462040412287380000	      0.57113169693406873000	     -1.91192358779476650000	      0.99385157244156253000	      1.06006615202725780000	     -0.30889874260672134000	     35.38710219727619900000	      4.28126503911100630000	      0.06566987115836135600	    -15.54251830652279400000	      9.42355666210659490000	     -0.00000000000000000427	      0.00000000000000001771	    -16.99424849211936800000	      4.58030277333515020000	     -6.75823805761850770000	    -51.58104001078691400000	     -6.86247378037169930000	     -0.00000000000000000220	      0.00000000000000000809	     -6.43498389062585740000	      3.12754315857504840000	    -14.51914930026848600000	    -44.34950043551889800000	    -23.58907054310844500000	    -16.67170595863282000000	    113.20478074013037000000	    116.28601264802921000000	     -0.00000000000000000136	      0.00000000000000000001	    -17.25484057759559800000	    -18.16619940797977200000	      8.57826164329597600000	    128.58788088640864000000	    103.32191957882549000000	      0.00000000000000000738	      0.00000000000000001836
